{"title":"[JRR] Sword Art Online II - 20 [Eng Subbed] [720p] [10bit] [Anim","uid":11545995,"size":127311945,"categoryP":"video","categoryS":"hd___tv_shows","magnet":"?xt=urn:btih:fd15ceb627ebb257e68384121340787cdc8694c2&amp;dn=%5BJRR%5D+Sword+Art+Online+II+-+20+%5BEng+Subbed%5D+%5B720p%5D+%5B10bit%5D+%5BAnim&amp;tr=udp%3A%2F%2Ftracker.openbittorrent.com%3A80&amp;tr=udp%3A%2F%2Fopen.demonii.com%3A1337&amp;tr=udp%3A%2F%2Ftracker.coppersurfer.tk%3A6969&amp;tr=udp%3A%2F%2Fexodus.desync.com%3A6969","seeders":1,"leechers":0,"uploader":"JRRtv","files":1,"time":1416728548,"description":"[b]General[/b] \nFormat : Matroska \nFormat version : Version 2 \nFile size : 121 MiB \nDuration : 23mn 40s \nOverall bit rate mode : Variable \nOverall bit rate : 717 Kbps \n[b]\nVideo[/b] \nFormat : AVC \nFormat profile : High &lt;a class=&quot;__cf_email__&quot; href=&quot;/cdn-cgi/l/email-protection&quot; data-cfemail=&quot;6455542428504a55&quot;&gt;[email&amp;#160;protected]&lt;/a&gt;&lt;script cf-hash='f9e31' type=&quot;text/javascript&quot;&gt;\n/* &lt;![CDATA[ */!function(){try{var t=&quot;currentScript&quot;in document?document.currentScript:function(){for(var t=document.getElementsByTagName(&quot;script&quot;),e=t.length;e--;)if(t[e].getAttribute(&quot;cf-hash&quot;))return t[e]}();if(t&amp;&amp;t.previousSibling){var e,r,n,i,c=t.previousSibling,a=c.getAttribute(&quot;data-cfemail&quot;);if(a){for(e=&quot;&quot;,r=parseInt(a.substr(0,2),16),n=2;a.length-n;n+=2)i=parseInt(a.substr(n,2),16)^r,e+=String.fromCharCode(i);e=document.createTextNode(e),c.parentNode.replaceChild(e,c)}}}catch(u){}}();/* ]]&gt; */&lt;/script&gt; \nBit rate mode : Variable \nBit rate : 637 Kbps \nWidth : 1 280 pixels \nHeight : 720 pixels \nDisplay aspect ratio : 16:9 \nFrame rate mode : Constant \nFrame rate : 23.976 fps \nColor space : YUV \nChroma subsampling : 4:2:0 \nBit depth : 10 bits \nScan type : Progressive \nStream size : 108 MiB (89%) \n\n[b]Audio[/b] \nFormat : Vorbis \nChannel(s) : 2 channels \nSampling rate : 44.1 KHz \nCompression mode : Lossy \nStream size : 11.2 MiB (9%) \nLanguage : Japanese \nDefault : Yes \n\n[b]Subtitles[/b] \nFormat : ASS \nLanguage : English \nSource : [color=green]HorribleSubs[/color]\n\n[b]Screens[/b] &lt;a href=&quot;\nhttp://i.imgur.com/6fx5XDb.png&quot; rel=&quot;nofollow&quot; target=&quot;_NEW&quot;&gt;\nhttp://i.imgur.com/6fx5XDb.png&lt;/a&gt; &lt;a href=&quot;\nhttp://i.imgur.com/jixLpYk.png&quot; rel=&quot;nofollow&quot; target=&quot;_NEW&quot;&gt;\nhttp://i.imgur.com/jixLpYk.png&lt;/a&gt; &lt;a href=&quot;\nhttp://i.imgur.com/nvx57tl.png&quot; rel=&quot;nofollow&quot; target=&quot;_NEW&quot;&gt;\nhttp://i.imgur.com/nvx57tl.png&lt;/a&gt; &lt;a href=&quot;\nhttp://i.imgur.com/qcRE5gL.png&quot; rel=&quot;nofollow&quot; target=&quot;_NEW&quot;&gt;\nhttp://i.imgur.com/qcRE5gL.png&lt;/a&gt;","torrent":{"xt":"urn:btih:fd15ceb627ebb257e68384121340787cdc8694c2","amp;dn":"%5BJRR%5D+Sword+Art+Online+II+-+20+%5BEng+Subbed%5D+%5B720p%5D+%5B10bit%5D+%5BAnim","amp;tr":["udp%3A%2F%2Ftracker.openbittorrent.com%3A80","udp%3A%2F%2Fopen.demonii.com%3A1337","udp%3A%2F%2Ftracker.coppersurfer.tk%3A6969","udp%3A%2F%2Fexodus.desync.com%3A6969"],"infoHash":"fd15ceb627ebb257e68384121340787cdc8694c2","infoHashBuffer":{"type":"Buffer","data":[253,21,206,182,39,235,178,87,230,131,132,18,19,64,120,124,220,134,148,194]},"announce":[],"urlList":[]}}